<?xml version="1.0" encoding="utf-8"?>
<!-- Generator: Adobe Illustrator 19.2.1, SVG Export Plug-In . SVG Version: 6.00 Build 0)  -->
<svg version="1.1" id="layer" xmlns="http://www.w3.org/2000/svg" xmlns:xlink="http://www.w3.org/1999/xlink" x="0px" y="0px"
	 viewBox="0 0 652 652" style="enable-background:new 0 0 652 652;" xml:space="preserve">
<style type="text/css">
	.st0{fill:#403092;}
</style>
<polygon class="st0" points="89.5,242.4 74.5,317.8 89.5,393.1 102.2,393.1 87.2,317.8 102.2,242.4 "/>
<polygon class="st0" points="61.1,242.4 20.9,317.8 61,393.1 74.9,393.1 34.7,317.8 74.9,242.4 "/>
<polygon class="st0" points="118.3,242.4 133.4,317.8 118.4,393.1 131.1,393.1 146.1,317.8 131,242.4 "/>
<polygon class="st0" points="145.6,242.4 185.9,317.8 145.7,393.1 159.6,393.1 199.7,317.8 159.5,242.4 "/>
<g>
	<path class="st0" d="M570.4,329l13.9-34.8l14,34.8H570.4z M566.4,339.2h35.8l6.7,17.2h12l-29.7-73.3h-13.6l-29.8,73.3h11.8
		L566.4,339.2z M533.4,283.2h-11.5v73.3h11.5V283.2z M498.2,356.4v-73.3h-16l-23.3,56.7h-0.1l-23.7-56.7h-15.6v73.3h11.3v-54.7h0.3
		l22.8,54.7h9.8l22.9-54.9h0.2v54.9H498.2z M352.5,283.2v73.3h47.2V346h-35.8v-21.6h32.3v-10.5h-32.3v-20.3h35.5v-10.5H352.5z
		 M321.6,319.9c0,5-1.2,9.8-4,14.4c-1.5,2.2-3.3,4.2-5.3,5.9c-4.1,3.3-10.6,5.6-18,5.6h-11.5v-52h11.6c7.4,0,13.9,2.3,18,5.8
		C318.6,305.1,321.8,313,321.6,319.9 M333.7,319.9c0-6.6-2-14.1-6.4-20.8c-2.9-4.4-7.3-8.4-12.6-11.4c-5.2-2.8-12.3-4.5-20.1-4.5
		h-23.2v73.3h23.4c10.5,0,19.5-3.2,25.4-8C329.2,341.1,333.9,330,333.7,319.9 M247.6,283.2h-11.5v73.3h11.5V283.2z"/>
	<path class="st0" d="M489.2,391.6l-3.8,8.4h3.3l9.5-20.7h-3.3l-4,9.1l-4.3-9.1h-3.5L489.2,391.6z M481.2,379.3h-3.5V375h-3.1v4.3
		H472v2.8h2.7v6.8c0,1.6,0.4,2.8,1.1,3.4s1.8,1,3.2,1c0.8,0,1.6-0.1,2.2-0.3v-2.7c-0.5,0.1-0.9,0.1-1.2,0.1c-1.5,0-2.1-0.6-2.1-1.8
		v-6.6h3.5V379.3z M465.9,393.1h3.1v-13.8h-3.1V393.1z M466,376.2c0.4,0.4,0.9,0.6,1.4,0.6c0.6,0,1.1-0.2,1.5-0.6
		c0.4-0.4,0.6-0.9,0.6-1.4c0-0.6-0.2-1.1-0.6-1.4c-0.4-0.4-0.9-0.6-1.5-0.6c-0.5,0-1,0.2-1.4,0.6c-0.4,0.4-0.6,0.9-0.6,1.4
		C465.4,375.4,465.7,375.8,466,376.2 M462.5,379.3H459V375h-3.1v4.3h-2.7v2.8h2.7v6.8c0,1.6,0.4,2.8,1.1,3.4s1.8,1,3.2,1
		c0.8,0,1.6-0.1,2.2-0.3v-2.7c-0.5,0.1-1,0.1-1.3,0.1c-1.5,0-2.1-0.6-2.1-1.8v-6.6h3.5V379.3z M447.6,393.1h3.1v-8.5
		c0-1.6-0.4-3-1.3-4c-0.9-1.1-2.2-1.6-3.9-1.6c-0.4,0-0.9,0.1-1.3,0.1c-0.4,0.1-0.9,0.3-1.5,0.7c-0.6,0.3-1.1,0.8-1.5,1.3v-1.9h-3
		v13.8h3.1v-7.7c0-1.1,0.3-1.9,0.9-2.5c0.6-0.6,1.4-0.9,2.3-0.9c2,0,3.1,1.4,3.1,3.5V393.1z M428.1,381.7c1,0,1.8,0.3,2.5,0.8
		c0.7,0.6,1,1.3,1.1,2.3h-7.3c0.1-0.9,0.6-1.7,1.2-2.3C426.3,381.9,427.1,381.7,428.1,381.7 M434.8,387.1c0-0.3,0.1-0.6,0.1-0.9
		c0-2.1-0.6-3.9-1.8-5.2c-1.2-1.3-2.8-2-5-2c-1.3,0-2.5,0.3-3.6,1c-1.1,0.6-1.9,1.5-2.5,2.6c-0.6,1.1-0.9,2.3-0.9,3.6
		c-0.1,4,3.3,7.3,7.2,7.2c0.9,0,1.8-0.2,2.7-0.5c1.7-0.6,3.1-2,3.6-3.7l-2.6-0.8c-0.5,1.6-1.9,2.3-3.7,2.3c-2,0-4-1.6-4.1-3.6H434.8
		z M414.6,386.2c0,1.2-0.4,2.2-1.1,3.1c-0.8,0.8-1.8,1.3-3,1.3c-1.2,0-2.2-0.4-3-1.3c-0.8-0.9-1.2-1.9-1.2-3.1s0.4-2.3,1.2-3.1
		c0.8-0.8,1.8-1.2,3-1.2c1.2,0,2.2,0.4,3,1.2C414.2,383.9,414.6,385,414.6,386.2 M403.1,386.2c0,1.2,0.3,2.4,0.9,3.5
		c0.6,1.1,1.4,2,2.4,2.7c1,0.7,2.2,1,3.5,1c0.4,0,0.9-0.1,1.5-0.2c0.5-0.1,1.1-0.4,1.8-0.8c0.6-0.4,1.1-0.9,1.4-1.4v2.2h3V372h-3.1
		v9.2c-0.5-0.8-1.2-1.3-2.1-1.7c-0.9-0.4-1.7-0.6-2.4-0.6c-2.1,0-3.9,0.9-5.1,2.3C403.8,382.7,403.1,384.4,403.1,386.2 M396.6,393.1
		h3.1v-13.8h-3.1V393.1z M396.7,376.2c0.4,0.4,0.9,0.6,1.4,0.6c0.6,0,1.1-0.2,1.5-0.6c0.4-0.4,0.6-0.9,0.6-1.4
		c0-0.6-0.2-1.1-0.6-1.4c-0.4-0.4-0.9-0.6-1.5-0.6c-0.5,0-1,0.2-1.4,0.6c-0.4,0.4-0.6,0.9-0.6,1.4
		C396.1,375.4,396.3,375.8,396.7,376.2 M382,386.2c0,1.2-0.4,2.2-1.1,3.1c-0.8,0.8-1.8,1.3-3,1.3c-1.2,0-2.2-0.4-3-1.3
		c-0.8-0.9-1.2-1.9-1.2-3.1s0.4-2.3,1.2-3.1c0.8-0.8,1.8-1.2,3-1.2c1.2,0,2.2,0.4,3,1.2C381.7,383.9,382,385,382,386.2 M370.6,386.2
		c0,1.2,0.3,2.4,0.9,3.5c0.6,1.1,1.4,2,2.4,2.7c1,0.7,2.2,1,3.5,1c0.4,0,0.9-0.1,1.5-0.2c0.5-0.1,1.1-0.4,1.7-0.8
		c0.6-0.4,1.1-0.9,1.4-1.4v2.2h3V372H382v9.2c-0.5-0.8-1.2-1.3-2.1-1.7c-0.9-0.4-1.7-0.6-2.4-0.6c-2.1,0-3.9,0.9-5.1,2.3
		C371.3,382.7,370.6,384.4,370.6,386.2 M361.4,381.7c1,0,1.8,0.3,2.5,0.8c0.7,0.6,1,1.3,1.1,2.3h-7.3c0.1-0.9,0.6-1.7,1.2-2.3
		C359.6,381.9,360.5,381.7,361.4,381.7 M368.1,387.1c0-0.3,0.1-0.6,0.1-0.9c0-2.1-0.6-3.9-1.8-5.2c-1.2-1.3-2.8-2-5-2
		c-1.3,0-2.5,0.3-3.6,1c-1.1,0.6-1.9,1.5-2.5,2.6c-0.6,1.1-0.9,2.3-0.9,3.6c-0.1,4,3.3,7.3,7.2,7.2c0.9,0,1.8-0.2,2.7-0.5
		c1.7-0.6,3.1-2,3.6-3.7l-2.6-0.8c-0.5,1.6-1.9,2.3-3.7,2.3c-2,0-4-1.6-4.1-3.6H368.1z M352.4,379.3h-3.5V375h-3.1v4.3h-2.7v2.8h2.7
		v6.8c0,1.6,0.4,2.8,1.1,3.4c0.7,0.7,1.8,1,3.2,1c0.8,0,1.6-0.1,2.2-0.3v-2.7c-0.5,0.1-0.9,0.1-1.3,0.1c-1.5,0-2.1-0.6-2.1-1.8v-6.6
		h3.5V379.3z M337.5,393.1h3.1v-8.5c0-1.6-0.4-3-1.3-4c-0.9-1.1-2.2-1.6-3.9-1.6c-0.4,0-0.9,0.1-1.3,0.1c-0.4,0.1-0.9,0.3-1.5,0.7
		c-0.6,0.3-1.1,0.8-1.5,1.3v-1.9h-3v13.8h3.1v-7.7c0-1.1,0.3-1.9,0.9-2.5c0.6-0.6,1.4-0.9,2.3-0.9c2,0,3.1,1.4,3.1,3.5V393.1z
		 M318,381.7c1,0,1.8,0.3,2.5,0.8c0.7,0.6,1,1.3,1.1,2.3h-7.3c0.1-0.9,0.6-1.7,1.2-2.3C316.2,381.9,317,381.7,318,381.7
		 M324.7,387.1c0-0.3,0.1-0.6,0.1-0.9c0-2.1-0.6-3.9-1.8-5.2c-1.2-1.3-2.8-2-5-2c-1.3,0-2.5,0.3-3.6,1c-1.1,0.6-1.9,1.5-2.5,2.6
		c-0.6,1.1-0.9,2.3-0.9,3.6c-0.1,4,3.3,7.3,7.2,7.2c0.9,0,1.8-0.2,2.7-0.5c1.7-0.6,3.1-2,3.6-3.7l-2.6-0.8c-0.5,1.6-1.9,2.3-3.7,2.3
		c-2,0-4-1.6-4.1-3.6H324.7z M295.5,393.1h3.1v-7.7c0-1,0.3-1.9,0.8-2.5c0.5-0.6,1.3-0.9,2.2-0.9c2,0,3,1.3,3,3.4v7.8h3.1v-8.5
		c0-1.6-0.4-2.9-1.2-4c-0.8-1-2.1-1.6-3.8-1.6c-1,0-1.9,0.2-2.6,0.5c-0.8,0.4-1.5,0.9-2.2,1.7c-0.9-1.5-2.3-2.3-4.3-2.3
		c-0.4,0-0.9,0.1-1.3,0.1c-0.4,0.1-0.9,0.4-1.4,0.7c-0.5,0.3-1,0.8-1.4,1.3v-1.9h-3v13.8h3.1v-7.7c0-1.1,0.3-1.9,0.8-2.6
		c0.5-0.6,1.2-0.9,2.2-0.9c2,0,2.9,1.4,2.9,3.5V393.1z M279,386.1c0,1.2-0.4,2.3-1.1,3.1c-0.8,0.9-1.8,1.3-3,1.3
		c-1.2,0-2.2-0.4-3-1.3c-0.8-0.8-1.2-1.9-1.2-3.1c0-1.2,0.4-2.3,1.1-3.1c0.8-0.8,1.8-1.2,3-1.2c1.2,0,2.2,0.4,3,1.2
		C278.6,383.9,279,384.9,279,386.1 M274.4,393.2c0.4,0,0.9-0.1,1.4-0.2c0.5-0.1,1.1-0.4,1.7-0.8c0.6-0.4,1.1-0.8,1.4-1.4v2.3
		c0,2.9-2.2,4.1-4.5,4.1c-0.9,0-1.7-0.3-2.5-0.8c-0.7-0.5-1.2-1.2-1.3-1.9l-2.9,0.8c0.2,1,0.6,1.9,1.4,2.6c1.5,1.4,3.4,2.1,5.5,2.1
		c1.4,0,2.7-0.3,3.8-0.8c1.1-0.5,2-1.4,2.7-2.4c0.7-1.1,1-2.3,1-3.8v-13.7h-3v2.1c-0.5-0.8-1.2-1.4-2.1-1.8
		c-0.9-0.4-1.7-0.6-2.4-0.6c-2.1,0-3.9,0.9-5,2.3c-1.1,1.4-1.8,3.1-1.8,4.8c0,1.8,0.7,3.6,1.9,4.9
		C270.7,392.4,272.5,393.2,274.4,393.2 M254.9,379.3h-3.1v8.5c0,1.1,0.2,2,0.5,2.8c0.8,1.7,2.4,2.8,4.6,2.8c0.4,0,0.9,0,1.3-0.1
		c0.4-0.1,0.9-0.3,1.5-0.7c0.6-0.3,1-0.8,1.5-1.3v1.9h3v-13.8h-3.1v7.7c0,1-0.3,1.9-0.9,2.5c-0.6,0.6-1.4,0.9-2.3,0.9
		c-2,0-3-1.4-3-3.5V379.3z M244.6,387.5c0,1-0.3,1.8-0.9,2.4c-0.6,0.6-1.5,0.9-2.5,0.9c-1.3,0-2.2-0.8-2.2-1.9
		c0-0.6,0.3-1.1,0.8-1.4c0.6-0.3,1.1-0.5,1.8-0.5h3V387.5z M247.8,393.1c-0.1-0.6-0.1-1.3-0.1-2.2v-6.6c0-1-0.2-1.8-0.5-2.4
		c-0.9-1.9-2.6-2.8-5.2-2.8c-1.1,0-2,0.2-2.8,0.5c-0.9,0.4-1.6,1-2.2,1.7c-0.6,0.8-0.9,1.4-0.9,2.1l2.8,0.6c0.2-1.4,1.4-2.3,3-2.3
		c0.9,0,1.6,0.2,2,0.6c0.5,0.4,0.7,0.9,0.7,1.5c0,0.8-0.4,1.2-1.3,1.2h-1.7c-1,0-2,0.1-3.1,0.6c-1.5,0.6-2.6,1.7-2.7,3.7v0.1
		c0,1.2,0.4,2.2,1.3,2.9c0.9,0.8,2,1.2,3.3,1.2c0.8,0,1.5-0.2,2.3-0.5c0.7-0.3,1.3-0.9,1.8-1.6c0,0.9,0.1,1.5,0.1,1.9H247.8z"/>
</g>
</svg>
